<svg xmlns="http://www.w3.org/2000/svg" xmlns:xlink="http://www.w3.org/1999/xlink" width="500" zoomAndPan="magnify" viewBox="0 0 375 374.999991" height="500" preserveAspectRatio="xMidYMid meet" version="1.0"><defs><g/><clipPath id="774fe4622c"><path d="M 20.394531 30 L 31 30 L 31 345 L 20.394531 345 Z M 20.394531 30 " clip-rule="nonzero"/></clipPath><clipPath id="7d004e8922"><path d="M 20.394531 344 L 31 344 L 31 355 L 20.394531 355 Z M 20.394531 344 " clip-rule="nonzero"/></clipPath><clipPath id="50d9815672"><path d="M 344 20.394531 L 355 20.394531 L 355 31 L 344 31 Z M 344 20.394531 " clip-rule="nonzero"/></clipPath><clipPath id="61a291f626"><path d="M 20.394531 20.394531 L 31 20.394531 L 31 31 L 20.394531 31 Z M 20.394531 20.394531 " clip-rule="nonzero"/></clipPath><clipPath id="a66b44db52"><path d="M 30 20.394531 L 345 20.394531 L 345 31 L 30 31 Z M 30 20.394531 " clip-rule="nonzero"/></clipPath><clipPath id="4a7af87ead"><path d="M 65.15625 65.15625 L 309.84375 65.15625 L 309.84375 309.84375 L 65.15625 309.84375 Z M 65.15625 65.15625 " clip-rule="nonzero"/></clipPath></defs><path fill="#000000" d="M 344.6875 344.6875 L 354.601562 344.6875 L 354.601562 354.601562 L 344.6875 354.601562 Z M 344.6875 344.6875 " fill-opacity="1" fill-rule="nonzero"/><g clip-path="url(#774fe4622c)"><path fill="#000000" d="M 20.394531 30.421875 L 30.421875 30.421875 L 30.421875 344.6875 L 20.394531 344.6875 Z M 20.394531 30.421875 " fill-opacity="1" fill-rule="nonzero"/></g><g clip-path="url(#7d004e8922)"><path fill="#000000" d="M 20.394531 344.6875 L 30.421875 344.6875 L 30.421875 354.601562 L 20.394531 354.601562 Z M 20.394531 344.6875 " fill-opacity="1" fill-rule="nonzero"/></g><path fill="#000000" d="M 344.6875 30.421875 L 354.601562 30.421875 L 354.601562 344.6875 L 344.6875 344.6875 Z M 344.6875 30.421875 " fill-opacity="1" fill-rule="nonzero"/><path fill="#000000" d="M 30.421875 344.6875 L 344.6875 344.6875 L 344.6875 354.601562 L 30.421875 354.601562 Z M 30.421875 344.6875 " fill-opacity="1" fill-rule="nonzero"/><g clip-path="url(#50d9815672)"><path fill="#000000" d="M 344.6875 20.394531 L 354.601562 20.394531 L 354.601562 30.421875 L 344.6875 30.421875 Z M 344.6875 20.394531 " fill-opacity="1" fill-rule="nonzero"/></g><g clip-path="url(#61a291f626)"><path fill="#000000" d="M 20.394531 20.394531 L 30.421875 20.394531 L 30.421875 30.421875 L 20.394531 30.421875 Z M 20.394531 20.394531 " fill-opacity="1" fill-rule="nonzero"/></g><g clip-path="url(#a66b44db52)"><path fill="#000000" d="M 30.421875 20.394531 L 344.6875 20.394531 L 344.6875 30.421875 L 30.421875 30.421875 Z M 30.421875 20.394531 " fill-opacity="1" fill-rule="nonzero"/></g><g clip-path="url(#4a7af87ead)"><path fill="#ff3131" d="M 65.15625 65.15625 L 309.84375 65.15625 L 309.84375 309.84375 L 65.15625 309.84375 Z M 65.15625 65.15625 " fill-opacity="1" fill-rule="nonzero"/></g><g fill="#ffffff" fill-opacity="1"><g transform="translate(94.82827, 230.740538)"><g><path d="M 100.984375 -77.71875 C 98.421875 -77.5625 96.570312 -77.253906 95.4375 -76.796875 C 94.3125 -76.347656 93.539062 -75.484375 93.125 -74.203125 C 92.71875 -72.929688 92.515625 -70.863281 92.515625 -68 L 92.515625 -11.96875 C 92.515625 -9.113281 92.71875 -7.046875 93.125 -5.765625 C 93.539062 -4.484375 94.332031 -3.613281 95.5 -3.15625 C 96.664062 -2.707031 98.492188 -2.410156 100.984375 -2.265625 L 100.984375 0 C 96.835938 -0.226562 90.925781 -0.34375 83.25 -0.34375 C 75.1875 -0.34375 69.238281 -0.226562 65.40625 0 L 65.40625 -2.265625 C 68.113281 -2.410156 70.085938 -2.707031 71.328125 -3.15625 C 72.566406 -3.613281 73.410156 -4.484375 73.859375 -5.765625 C 74.316406 -7.046875 74.546875 -9.113281 74.546875 -11.96875 L 74.546875 -71.046875 L 47.328125 0.109375 L 45.515625 0.109375 L 15.015625 -72.625 L 15.015625 -18.53125 C 15.015625 -14.082031 15.238281 -10.820312 15.6875 -8.75 C 16.144531 -6.675781 17.125 -5.171875 18.625 -4.234375 C 20.132812 -3.296875 22.585938 -2.640625 25.984375 -2.265625 L 25.984375 0 C 23.046875 -0.226562 18.976562 -0.34375 13.78125 -0.34375 C 9.632812 -0.34375 6.359375 -0.226562 3.953125 0 L 3.953125 -2.265625 C 6.441406 -2.640625 8.269531 -3.273438 9.4375 -4.171875 C 10.601562 -5.078125 11.390625 -6.507812 11.796875 -8.46875 C 12.210938 -10.425781 12.421875 -13.328125 12.421875 -17.171875 L 12.421875 -68 C 12.421875 -70.863281 12.210938 -72.929688 11.796875 -74.203125 C 11.390625 -75.484375 10.601562 -76.347656 9.4375 -76.796875 C 8.269531 -77.253906 6.441406 -77.5625 3.953125 -77.71875 L 3.953125 -79.96875 C 6.359375 -79.738281 9.632812 -79.625 13.78125 -79.625 C 20.707031 -79.625 26.65625 -79.738281 31.625 -79.96875 L 54.4375 -24.96875 L 75.234375 -79.625 L 83.25 -79.625 C 90.925781 -79.625 96.835938 -79.738281 100.984375 -79.96875 Z M 100.984375 -77.71875 "/></g></g></g><g fill="#ffffff" fill-opacity="1"><g transform="translate(199.516526, 230.740538)"><g><path d="M 73.640625 -9.15625 C 74.773438 -7.414062 75.941406 -6.019531 77.140625 -4.96875 C 78.347656 -3.914062 79.894531 -3.015625 81.78125 -2.265625 L 81.78125 0 C 76.507812 -0.226562 70.632812 -0.34375 64.15625 -0.34375 C 59.1875 -0.34375 54.40625 -0.226562 49.8125 0 L 49.8125 -2.265625 C 51.914062 -2.410156 53.4375 -2.632812 54.375 -2.9375 C 55.320312 -3.238281 55.796875 -3.765625 55.796875 -4.515625 C 55.796875 -5.117188 55.382812 -6.0625 54.5625 -7.34375 L 38.171875 -33.890625 C 36.671875 -36.296875 35.410156 -37.910156 34.390625 -38.734375 C 33.378906 -39.566406 32.003906 -40.0625 30.265625 -40.21875 L 30.265625 -11.96875 C 30.265625 -9.113281 30.472656 -7.046875 30.890625 -5.765625 C 31.304688 -4.484375 32.078125 -3.613281 33.203125 -3.15625 C 34.335938 -2.707031 36.1875 -2.410156 38.75 -2.265625 L 38.75 0 C 34.675781 -0.226562 28.988281 -0.34375 21.6875 -0.34375 C 13.625 -0.34375 7.675781 -0.226562 3.84375 0 L 3.84375 -2.265625 C 6.320312 -2.410156 8.144531 -2.707031 9.3125 -3.15625 C 10.476562 -3.613281 11.269531 -4.484375 11.6875 -5.765625 C 12.101562 -7.046875 12.3125 -9.113281 12.3125 -11.96875 L 12.3125 -68 C 12.3125 -70.863281 12.101562 -72.929688 11.6875 -74.203125 C 11.269531 -75.484375 10.476562 -76.347656 9.3125 -76.796875 C 8.144531 -77.253906 6.320312 -77.5625 3.84375 -77.71875 L 3.84375 -79.96875 C 7.675781 -79.738281 13.625 -79.625 21.6875 -79.625 C 28.988281 -79.625 34.675781 -79.738281 38.75 -79.96875 L 38.75 -77.71875 C 36.1875 -77.5625 34.335938 -77.253906 33.203125 -76.796875 C 32.078125 -76.347656 31.304688 -75.484375 30.890625 -74.203125 C 30.472656 -72.929688 30.265625 -70.863281 30.265625 -68 L 30.265625 -42.578125 C 33.285156 -42.734375 36.035156 -43.640625 38.515625 -45.296875 C 41.003906 -46.953125 43.828125 -49.585938 46.984375 -53.203125 L 53.65625 -61.21875 C 57.113281 -65.207031 58.84375 -68.707031 58.84375 -71.71875 C 58.84375 -73.53125 58.109375 -74.960938 56.640625 -76.015625 C 55.171875 -77.066406 53.117188 -77.671875 50.484375 -77.828125 L 50.484375 -79.96875 C 55.984375 -79.738281 61.554688 -79.625 67.203125 -79.625 C 71.578125 -79.625 75.117188 -79.738281 77.828125 -79.96875 L 77.828125 -77.828125 C 71.796875 -76.390625 66.335938 -72.773438 61.453125 -66.984375 L 47.328125 -50.15625 Z M 73.640625 -9.15625 "/></g></g></g></svg>