<?xml version="1.0" standalone="no"?>
<!DOCTYPE svg PUBLIC "-//W3C//DTD SVG 20010904//EN"
 "http://www.w3.org/TR/2001/REC-SVG-20010904/DTD/svg10.dtd">
<svg version="1.0" xmlns="http://www.w3.org/2000/svg"
 width="48.000000pt" height="48.000000pt" viewBox="0 0 48.000000 48.000000"
 preserveAspectRatio="xMidYMid meet">

<g transform="translate(0.000000,48.000000) scale(0.100000,-0.100000)"
fill="#cc3333" stroke="none">
<path d="M30 240 l0 -210 210 0 210 0 0 210 0 210 -210 0 -210 0 0 -210z m410
0 l0 -200 -200 0 -200 0 0 200 0 200 200 0 200 0 0 -200z"/>
<path d="M90 240 l0 -150 150 0 150 0 0 150 0 150 -150 0 -150 0 0 -150z m92
14 c16 -34 15 -64 -2 -64 -4 0 -15 17 -24 38 l-16 37 4 -42 c2 -24 0 -43 -5
-43 -5 0 -9 25 -9 55 0 46 3 55 18 55 10 -1 24 -16 34 -36z m63 -19 c0 -44 -3
-55 -16 -55 -12 0 -18 11 -21 38 -6 49 1 72 21 72 13 0 16 -11 16 -55z m55 34
c0 -18 2 -19 15 -9 8 7 12 16 9 21 -3 5 3 9 12 9 16 0 16 -1 -1 -20 -16 -18
-16 -20 5 -55 21 -34 21 -35 2 -35 -12 0 -23 9 -27 23 l-8 22 -4 -22 c-2 -13
-12 -23 -21 -23 -14 0 -17 10 -17 55 0 46 3 55 18 55 11 0 17 -8 17 -21z"/>
</g>
</svg>
