<svg xmlns="http://www.w3.org/2000/svg" xmlns:xlink="http://www.w3.org/1999/xlink" width="500" zoomAndPan="magnify" viewBox="0 0 375 374.999991" height="500" preserveAspectRatio="xMidYMid meet" version="1.0"><defs><g/><clipPath id="a1b2a218d7"><path d="M 50.226562 50.226562 L 324.773438 50.226562 L 324.773438 324.773438 L 50.226562 324.773438 Z M 50.226562 50.226562 " clip-rule="nonzero"/></clipPath></defs><path fill="#000000" d="M 363.871094 363.871094 L 374.996094 363.871094 L 374.996094 374.996094 L 363.871094 374.996094 Z M 363.871094 363.871094 " fill-opacity="1" fill-rule="nonzero"/><path fill="#000000" d="M 0 11.25 L 11.25 11.25 L 11.25 363.871094 L 0 363.871094 Z M 0 11.25 " fill-opacity="1" fill-rule="nonzero"/><path fill="#000000" d="M 0 363.871094 L 11.25 363.871094 L 11.25 374.996094 L 0 374.996094 Z M 0 363.871094 " fill-opacity="1" fill-rule="nonzero"/><path fill="#000000" d="M 363.871094 11.25 L 374.996094 11.25 L 374.996094 363.871094 L 363.871094 363.871094 Z M 363.871094 11.25 " fill-opacity="1" fill-rule="nonzero"/><path fill="#000000" d="M 11.25 363.871094 L 363.871094 363.871094 L 363.871094 374.996094 L 11.25 374.996094 Z M 11.25 363.871094 " fill-opacity="1" fill-rule="nonzero"/><path fill="#000000" d="M 363.871094 0 L 374.996094 0 L 374.996094 11.25 L 363.871094 11.25 Z M 363.871094 0 " fill-opacity="1" fill-rule="nonzero"/><path fill="#000000" d="M 0 0 L 11.25 0 L 11.25 11.25 L 0 11.25 Z M 0 0 " fill-opacity="1" fill-rule="nonzero"/><path fill="#000000" d="M 11.25 0 L 363.871094 0 L 363.871094 11.25 L 11.25 11.25 Z M 11.25 0 " fill-opacity="1" fill-rule="nonzero"/><g clip-path="url(#a1b2a218d7)"><path fill="#ff3131" d="M 50.226562 50.226562 L 324.773438 50.226562 L 324.773438 324.773438 L 50.226562 324.773438 Z M 50.226562 50.226562 " fill-opacity="1" fill-rule="nonzero"/></g><g fill="#ffffff" fill-opacity="1"><g transform="translate(102.507804, 271.878772)"><g><path d="M 163.984375 -168.5 L 163.984375 -163.984375 C 158.898438 -162.867188 153.460938 -160.644531 147.671875 -157.3125 C 141.878906 -153.976562 135.8125 -148.585938 129.46875 -141.140625 L 84.734375 -87.828125 L 98.53125 -107.578125 L 155.171875 -19.28125 C 157.398438 -15.625 159.78125 -12.6875 162.3125 -10.46875 C 164.851562 -8.25 168.1875 -6.347656 172.3125 -4.765625 L 172.3125 0 C 166.757812 -0.3125 160.570312 -0.507812 153.75 -0.59375 C 146.925781 -0.675781 140.738281 -0.71875 135.1875 -0.71875 C 131.851562 -0.71875 127.804688 -0.675781 123.046875 -0.59375 C 118.285156 -0.507812 112.253906 -0.3125 104.953125 0 L 104.953125 -4.765625 C 111.460938 -5.078125 115.390625 -5.988281 116.734375 -7.5 C 118.085938 -9.007812 117.492188 -11.664062 114.953125 -15.46875 L 80.4375 -71.40625 C 78.21875 -75.050781 76.234375 -77.785156 74.484375 -79.609375 C 72.742188 -81.429688 71 -82.695312 69.25 -83.40625 C 67.507812 -84.125 65.210938 -84.566406 62.359375 -84.734375 L 62.359375 -89.71875 C 69.335938 -89.882812 75.5625 -91.789062 81.03125 -95.4375 C 86.507812 -99.082031 92.503906 -104.632812 99.015625 -112.09375 L 113.046875 -129 C 119.078125 -136.132812 122.609375 -142.28125 123.640625 -147.4375 C 124.671875 -152.59375 123.640625 -156.597656 120.546875 -159.453125 C 117.453125 -162.316406 112.734375 -163.828125 106.390625 -163.984375 L 106.390625 -168.5 C 110.359375 -168.34375 114.125 -168.222656 117.6875 -168.140625 C 121.257812 -168.066406 124.988281 -167.988281 128.875 -167.90625 C 132.757812 -167.832031 137.003906 -167.796875 141.609375 -167.796875 C 146.210938 -167.796875 150.378906 -167.875 154.109375 -168.03125 C 157.835938 -168.1875 161.128906 -168.34375 163.984375 -168.5 Z M 81.640625 -168.5 L 81.640625 -163.75 C 76.554688 -163.582031 72.703125 -162.984375 70.078125 -161.953125 C 67.460938 -160.921875 65.757812 -159.015625 64.96875 -156.234375 C 64.175781 -153.460938 63.78125 -149.144531 63.78125 -143.28125 L 63.78125 -25.234375 C 63.78125 -19.515625 64.21875 -15.226562 65.09375 -12.375 C 65.96875 -9.519531 67.671875 -7.613281 70.203125 -6.65625 C 72.742188 -5.707031 76.554688 -5.078125 81.640625 -4.765625 L 81.640625 0 C 77.347656 -0.3125 71.945312 -0.507812 65.4375 -0.59375 C 58.9375 -0.675781 52.359375 -0.71875 45.703125 -0.71875 C 38.078125 -0.71875 30.894531 -0.675781 24.15625 -0.59375 C 17.414062 -0.507812 12.0625 -0.3125 8.09375 0 L 8.09375 -4.765625 C 13.164062 -5.078125 16.972656 -5.707031 19.515625 -6.65625 C 22.054688 -7.613281 23.757812 -9.519531 24.625 -12.375 C 25.5 -15.226562 25.9375 -19.515625 25.9375 -25.234375 L 25.9375 -143.28125 C 25.9375 -149.144531 25.5 -153.460938 24.625 -156.234375 C 23.757812 -159.015625 22.015625 -160.921875 19.390625 -161.953125 C 16.773438 -162.984375 13.007812 -163.582031 8.09375 -163.75 L 8.09375 -168.5 C 12.0625 -168.34375 17.414062 -168.1875 24.15625 -168.03125 C 30.894531 -167.875 38.078125 -167.796875 45.703125 -167.796875 C 52.359375 -167.796875 58.9375 -167.875 65.4375 -168.03125 C 71.945312 -168.1875 77.347656 -168.34375 81.640625 -168.5 Z M 81.640625 -168.5 "/></g></g></g></svg>