<svg xmlns="http://www.w3.org/2000/svg" xmlns:xlink="http://www.w3.org/1999/xlink" width="2000" zoomAndPan="magnify" viewBox="0 0 1500 1049.999947" height="1400" preserveAspectRatio="xMidYMid meet" version="1.0"><defs><g/></defs><g fill="#ff3131" fill-opacity="1"><g transform="translate(85.152204, 623.718543)"><g><path d="M 103.953125 -193.546875 C 128.648438 -193.546875 148.003906 -187.644531 162.015625 -175.84375 C 176.023438 -164.050781 183.03125 -147.832031 183.03125 -127.1875 C 183.03125 -106.539062 176.023438 -90.363281 162.015625 -78.65625 C 148.003906 -66.957031 128.648438 -61.109375 103.953125 -61.109375 L 51.984375 -61.109375 L 51.984375 0 L 31.515625 0 L 31.515625 -193.546875 Z M 103.40625 -79.078125 C 122.570312 -79.078125 137.222656 -83.269531 147.359375 -91.65625 C 157.503906 -100.039062 162.578125 -111.882812 162.578125 -127.1875 C 162.578125 -142.851562 157.503906 -154.878906 147.359375 -163.265625 C 137.222656 -171.648438 122.570312 -175.84375 103.40625 -175.84375 L 51.984375 -175.84375 L 51.984375 -79.078125 Z M 103.40625 -79.078125 "/></g></g></g><g fill="#ff3131" fill-opacity="1"><g transform="translate(260.130288, 623.718543)"><g><path d="M 163.671875 0 L 119.4375 -62.203125 C 114.457031 -61.648438 109.296875 -61.375 103.953125 -61.375 L 51.984375 -61.375 L 51.984375 0 L 31.515625 0 L 31.515625 -193.546875 L 103.953125 -193.546875 C 128.648438 -193.546875 148.003906 -187.644531 162.015625 -175.84375 C 176.023438 -164.050781 183.03125 -147.832031 183.03125 -127.1875 C 183.03125 -112.070312 179.203125 -99.304688 171.546875 -88.890625 C 163.898438 -78.472656 152.984375 -70.960938 138.796875 -66.359375 L 186.078125 0 Z M 103.40625 -78.796875 C 122.570312 -78.796875 137.222656 -83.035156 147.359375 -91.515625 C 157.503906 -99.992188 162.578125 -111.882812 162.578125 -127.1875 C 162.578125 -142.851562 157.503906 -154.878906 147.359375 -163.265625 C 137.222656 -171.648438 122.570312 -175.84375 103.40625 -175.84375 L 51.984375 -175.84375 L 51.984375 -78.796875 Z M 103.40625 -78.796875 "/></g></g></g><g fill="#ff3131" fill-opacity="1"><g transform="translate(436.49053, 623.718543)"><g><path d="M 116.125 1.65625 C 96.957031 1.65625 79.582031 -2.625 64 -11.1875 C 48.425781 -19.757812 36.257812 -31.507812 27.5 -46.4375 C 18.75 -61.375 14.375 -78.148438 14.375 -96.765625 C 14.375 -115.378906 18.75 -132.148438 27.5 -147.078125 C 36.257812 -162.015625 48.425781 -173.769531 64 -182.34375 C 79.582031 -190.914062 96.957031 -195.203125 116.125 -195.203125 C 135.289062 -195.203125 152.566406 -190.960938 167.953125 -182.484375 C 183.347656 -174.003906 195.46875 -162.25 204.3125 -147.21875 C 213.164062 -132.195312 217.59375 -115.378906 217.59375 -96.765625 C 217.59375 -78.148438 213.164062 -61.332031 204.3125 -46.3125 C 195.46875 -31.289062 183.347656 -19.539062 167.953125 -11.0625 C 152.566406 -2.582031 135.289062 1.65625 116.125 1.65625 Z M 116.125 -16.59375 C 131.425781 -16.59375 145.25 -20.046875 157.59375 -26.953125 C 169.945312 -33.867188 179.625 -43.453125 186.625 -55.703125 C 193.632812 -67.960938 197.140625 -81.648438 197.140625 -96.765625 C 197.140625 -111.878906 193.632812 -125.566406 186.625 -137.828125 C 179.625 -150.085938 169.945312 -159.671875 157.59375 -166.578125 C 145.25 -173.492188 131.425781 -176.953125 116.125 -176.953125 C 100.820312 -176.953125 86.945312 -173.492188 74.5 -166.578125 C 62.0625 -159.671875 52.296875 -150.085938 45.203125 -137.828125 C 38.109375 -125.566406 34.5625 -111.878906 34.5625 -96.765625 C 34.5625 -81.648438 38.109375 -67.960938 45.203125 -55.703125 C 52.296875 -43.453125 62.0625 -33.867188 74.5 -26.953125 C 86.945312 -20.046875 100.820312 -16.59375 116.125 -16.59375 Z M 116.125 -16.59375 "/></g></g></g><g fill="#ff3131" fill-opacity="1"><g transform="translate(644.917441, 623.718543)"><g><path d="M 152.890625 -51.703125 L 45.0625 -51.703125 L 21.84375 0 L 0.546875 0 L 89.03125 -193.546875 L 109.21875 -193.546875 L 197.6875 0 L 176.125 0 Z M 145.4375 -68.296875 L 98.984375 -172.25 L 52.53125 -68.296875 Z M 145.4375 -68.296875 "/></g></g></g><g fill="#ff3131" fill-opacity="1"><g transform="translate(819.619071, 623.718543)"><g><path d="M 193.265625 -193.546875 L 193.265625 0 L 176.390625 0 L 51.984375 -157.046875 L 51.984375 0 L 31.515625 0 L 31.515625 -193.546875 L 48.390625 -193.546875 L 173.078125 -36.5 L 173.078125 -193.546875 Z M 193.265625 -193.546875 "/></g></g></g><g fill="#ff3131" fill-opacity="1"><g transform="translate(1020.858622, 623.718543)"><g><path d="M 69.125 -175.84375 L 1.109375 -175.84375 L 1.109375 -193.546875 L 157.59375 -193.546875 L 157.59375 -175.84375 L 89.578125 -175.84375 L 89.578125 0 L 69.125 0 Z M 69.125 -175.84375 "/></g></g></g><g fill="#ff3131" fill-opacity="1"><g transform="translate(1156.029766, 623.718543)"><g><path d="M 31.515625 -193.546875 L 51.984375 -193.546875 L 51.984375 0 L 31.515625 0 Z M 31.515625 -193.546875 "/></g></g></g><g fill="#ff3131" fill-opacity="1"><g transform="translate(1216.010134, 623.718543)"><g><path d="M 115.578125 1.65625 C 96.398438 1.65625 79.113281 -2.582031 63.71875 -11.0625 C 48.332031 -19.539062 36.257812 -31.289062 27.5 -46.3125 C 18.75 -61.332031 14.375 -78.148438 14.375 -96.765625 C 14.375 -115.378906 18.75 -132.195312 27.5 -147.21875 C 36.257812 -162.25 48.378906 -174.003906 63.859375 -182.484375 C 79.347656 -190.960938 96.675781 -195.203125 115.84375 -195.203125 C 130.21875 -195.203125 143.488281 -192.804688 155.65625 -188.015625 C 167.820312 -183.222656 178.144531 -176.21875 186.625 -167 L 173.625 -154 C 158.507812 -169.300781 139.4375 -176.953125 116.40625 -176.953125 C 101.101562 -176.953125 87.179688 -173.445312 74.640625 -166.4375 C 62.109375 -159.4375 52.296875 -149.851562 45.203125 -137.6875 C 38.109375 -125.519531 34.5625 -111.878906 34.5625 -96.765625 C 34.5625 -81.648438 38.109375 -68.007812 45.203125 -55.84375 C 52.296875 -43.6875 62.109375 -34.101562 74.640625 -27.09375 C 87.179688 -20.09375 101.101562 -16.59375 116.40625 -16.59375 C 139.625 -16.59375 158.695312 -24.332031 173.625 -39.8125 L 186.625 -26.8125 C 178.144531 -17.601562 167.773438 -10.554688 155.515625 -5.671875 C 143.265625 -0.785156 129.953125 1.65625 115.578125 1.65625 Z M 115.578125 1.65625 "/></g></g></g></svg>